Coordinates
version=1
nRows=7
nColumns=42
inDegrees=yes

Units are S.I. units (second, meters, Newtons, ...)
If the header above contains a line with 'inDegrees', this indicates whether rotational values are in degrees (yes) or radians (no).

endheader
time	pelvis_tilt	pelvis_list	pelvis_rotation	pelvis_tx	pelvis_ty	pelvis_tz	hip_flexion_r	hip_adduction_r	hip_rotation_r	knee_angle_r	knee_adduction_r	knee_angle_r_beta	ankle_angle_r	subtalar_angle_r	mtp_angle_r	hip_flexion_l	hip_adduction_l	hip_rotation_l	knee_angle_l	knee_adduction_l	knee_angle_l_beta	ankle_angle_l	subtalar_angle_l	mtp_angle_l	lumbar_extension	lumbar_bending	lumbar_rotation	arm_flex_r	arm_add_r	arm_rot_r	elbow_flex_r	pro_sup_r	wrist_flex_r	wrist_dev_r	arm_flex_l	arm_add_l	arm_rot_l	elbow_flex_l	pro_sup_l	wrist_flex_l	wrist_dev_l
      6.00000000	      7.21387550	     -3.84876411	     -5.54298984	      0.51197897	      0.95192096	     -0.15102632	      6.72474801	     -9.81363441	    -16.69984832	     38.36887188	      3.97387078	      0.66966314	      6.82592283	      5.29365368	     -7.50364926	     -1.23433633	     -3.46295810	    -22.84243613	     24.83432205	      1.85908137	      0.43344069	     18.75762424	      4.43061467	     -7.50364926	    -18.16338687	      2.92398639	     -1.48437825	      7.54278833	     -9.97071582	      4.77232746	     40.23261501	     90.00000001	      0.00000000	      0.00000000	    -14.75961562	     -9.80288130	     -3.26607803	     49.91307405	     90.00000001	      0.00000000	      0.00000000
      6.01000000	      7.08211278	     -3.75951966	     -5.65823633	      0.51326513	      0.95162401	     -0.15083730	      7.28100881	     -9.88332800	    -16.82994739	     37.46741686	      4.18452507	      0.65392979	      6.92944900	      5.52857902	     -7.50363073	     -1.19861062	     -3.34028124	    -22.87237489	     24.79803670	      1.86792224	      0.43280739	     18.84290128	      4.36585316	     -7.50363073	    -18.06015948	      2.75420807	     -1.39674485	      7.43477873	    -10.00812370	      4.74255223	     40.12815760	     90.00000001	      0.00000000	      0.00000000	    -14.77675357	     -9.79928775	     -3.26735887	     49.94604323	     90.00000001	      0.00000000	      0.00000000
      6.02000000	      7.05360193	     -3.92144786	     -5.73386286	      0.51437289	      0.95168873	     -0.15058804	      7.48375120	     -9.59836170	    -16.71659352	     36.07526125	      4.54993687	      0.62963209	      7.13269306	      6.79744521	     -7.50356756	     -1.24087250	     -3.50167954	    -22.71470844	     24.86851455	      1.88402680	      0.43403746	     18.94035714	      4.08334771	     -7.50356756	    -18.14167495	      2.86417724	     -1.27961492	      7.48875301	     -9.96165733	      4.48959775	     39.84966447	     90.00000001	      0.00000000	      0.00000000	    -14.69804209	     -9.72569411	     -3.24905663	     49.79179425	     90.00000001	      0.00000000	      0.00000000
      6.03000000	      6.94879205	     -3.84128543	     -5.85505514	      0.51560834	      0.95136193	     -0.15033294	      8.06066497	     -9.66702331	    -16.94253124	     35.27058537	      4.73217478	      0.61558784	      7.20365334	      7.02324135	     -7.50355407	     -1.24432146	     -3.42038804	    -22.77960761	     24.82693434	      1.93307345	      0.43331175	     19.01869355	      4.01743687	     -7.50355407	    -18.08820310	      2.70852860	     -1.20196052	      7.42929001	    -10.00981347	      4.45347040	     39.78125505	     90.00000001	      0.00000000	      0.00000000	    -14.72154187	     -9.69505386	     -3.24644002	     49.81059649	     90.00000001	      0.00000000	      0.00000000
      6.04000000	      6.93720061	     -4.06045024	     -5.90373144	      0.51674679	      0.95145114	     -0.15017831	      8.14979208	     -9.26579121	    -16.98011427	     33.66730885	      4.97337806	      0.58760539	      7.29607972	      9.00918887	     -7.50348062	     -1.28227204	     -3.65899801	    -22.56347924	     24.98467803	      1.99003136	      0.43606489	     19.11430446	      3.65131679	     -7.50348062	    -18.19381694	      2.90706999	     -1.10836959	      7.51769645	    -10.02346701	      4.09230914	     39.52741359	     90.00000001	      0.00000000	      0.00000000	    -14.60605664	     -9.56559270	     -3.23598568	     49.57824680	     90.00000001	      0.00000000	      0.00000000
      6.05000000	      6.80725506	     -3.95228537	     -6.01529477	      0.51798291	      0.95106659	     -0.14976767	      8.72621568	     -9.32595994	    -17.24668303	     32.82038332	      5.15107801	      0.57282375	      7.32544413	      9.34600410	     -7.50346681	     -1.24511463	     -3.55010232	    -22.62570282	     24.93209733	      2.01581972	      0.43514719	     19.20445078	      3.58461201	     -7.50346681	    -18.11400559	      2.71637958	     -1.02734763	      7.40813771	    -10.01816060	      4.07394030	     39.45728848	     90.00000001	      0.00000000	      0.00000000	    -14.60719510	     -9.60367592	     -3.25840074	     49.59834113	     90.00000001	      0.00000000	      0.00000000
      6.06000000	      6.66413673	     -4.02155984	     -6.06502115	      0.51910444	      0.95080054	     -0.14955961	      9.05706556	     -9.13891497	    -17.24843903	     31.44855213	      5.51659990	      0.54888078	      7.19496904	     10.93121107	     -7.50342447	     -1.09914600	     -3.58977453	    -22.48667747	     25.06560923	      1.91828906	      0.43747741	     19.31857556	      3.36115578	     -7.50342447	    -18.05839987	      2.76621269	     -0.97769114	      7.41484817	    -10.03831045	      3.91239896	     39.33781576	     90.00000001	      0.00000000	      0.00000000	    -14.53091239	     -9.54241943	     -3.24569774	     49.43838385	     90.00000001	      0.00000000	      0.00000000
